<svg width="90" height="90" fill="none" xmlns="http://www.w3.org/2000/svg"><path fill-rule="evenodd" clip-rule="evenodd" d="M65.89 18.5c-1.1-1.1-2.3-2.12-3.56-3.04l-3.6 5.21c.95.7 1.85 1.47 2.68 2.3 4.38 4.38 6.79 10.21 6.79 16.41 0 5.05-1.67 10.01-4.72 14.02l4.94 3.97c3.95-5.13 6.11-11.5 6.11-17.99 0-7.89-3.07-15.31-8.65-20.89l.01.01z" fill="#5D9948"/><path fill-rule="evenodd" clip-rule="evenodd" d="M27.68 15.46c-1.26.92-2.46 1.94-3.56 3.04-5.58 5.58-8.65 13-8.65 20.89 0 6.5 2.17 12.86 6.11 17.99l4.94-3.97a23.241 23.241 0 0 1-4.72-14.02c0-6.2 2.41-12.02 6.79-16.41.83-.83 1.73-1.6 2.68-2.3l-3.6-5.21.01-.01z" fill="#81B64C"/><path fill-rule="evenodd" clip-rule="evenodd" d="M76.44 7.94a44.936 44.936 0 0 0-5.63-4.77l-3.6 5.21c1.69 1.22 3.29 2.57 4.75 4.04 7.2 7.2 11.17 16.78 11.17 26.96 0 8.45-2.84 16.73-8.01 23.38l4.94 3.97a44.598 44.598 0 0 0 9.41-27.35c0-11.88-4.62-23.04-13.02-31.44h-.01z" fill="#5D9948"/><path fill-rule="evenodd" clip-rule="evenodd" d="M13.56 7.94C5.16 16.34.54 27.51.54 39.38c0 9.89 3.34 19.58 9.41 27.35l4.94-3.97a38.218 38.218 0 0 1-8.01-23.38c0-10.19 3.97-19.76 11.17-26.96 1.46-1.46 3.06-2.82 4.75-4.04l-3.6-5.21c-2 1.43-3.9 3.03-5.63 4.77h-.01z" fill="#81B64C"/><path d="M61.08 65.95c-7.43-5.66-8.32-10.58-8.42-13.67h5.4l.6-1.11c.94-1.75 1.36-3.35 1.36-5.2v-1.14l-5.84-3.85c1.79-2.14 2.81-4.86 2.81-7.69 0-4.88-2.9-9.22-7.41-11.08l-.85-.42-.14.07c-1.16-.36-2.36-.55-3.58-.55-6.61 0-11.98 5.37-11.98 11.98 0 2.83 1.02 5.56 2.81 7.69L30 44.83v1.14c0 1.85.42 3.46 1.36 5.2l.6 1.11h5.4v.11c-.12 3.16-1.12 8-8.42 13.57-2.35 1.8-4.18 4.34-5.29 7.38l-.12.3c-.03.07-.05.15-.06.19l-.63 1.89.09.05c-.36 1.59-.55 3.25-.55 4.97 0 4.04 7.61 6.09 22.63 6.09s22.63-2.05 22.63-6.09c0-6.21-2.39-11.59-6.55-14.77l-.01-.02z" fill="#5D9948"/><path d="M44.64 71.16c1.11-5.05 2.1-10.44 2.69-13.66.75-4.03-5.36-4.75-7.87-5.12-.11 3.44-1.07 9.02-9.26 15.26-2.21 1.68-3.85 4.09-4.8 6.99 2.21 1.08 5.16 1.72 9.7 1.72 2.92 0 8.31.35 9.53-5.19h.01zM48.93 50.16c.97-2.51.84-4.2.84-4.2l-4.03-4.69c4.29-1.83 6.87-5.27 6.87-9.28 0-3.2-1.52-6.04-3.89-7.84-1.15-.47-2.4-.73-3.72-.73-5.45 0-9.86 4.42-9.86 9.86 0 3.29 1.61 6.2 4.09 7.99l-7.12 4.69c0 1.57.37 2.84 1.11 4.2h15.72-.01z" fill="#81B64C"/><path d="M44.44 25.43c5.69.88-2.62 7.48-5.24 7.17-2.49-.29-.09-8 5.24-7.17z" fill="#B2E068"/></svg>